<?xml version="1.0" encoding="utf-8"?>
<!-- Generator: Adobe Illustrator 26.3.1, SVG Export Plug-In . SVG Version: 6.00 Build 0)  -->
<svg version="1.1" id="Layer_1" xmlns="http://www.w3.org/2000/svg" xmlns:xlink="http://www.w3.org/1999/xlink" x="0px" y="0px"
	 viewBox="0 0 10.9 10.9" style="enable-background:new 0 0 10.9 10.9;" xml:space="preserve">
<style type="text/css">
	.st0{fill:#2C2D65;}
</style>
<path class="st0" d="M9.6,10.7c0.1,0.1,0.3,0.2,0.5,0.2c0,0,0,0,0,0c0.2,0,0.4-0.1,0.5-0.2c0.1-0.1,0.2-0.3,0.2-0.5
	c0-0.2-0.1-0.4-0.2-0.5L6.5,5.4l4.2-4.2c0.1-0.1,0.2-0.3,0.2-0.5c0-0.2-0.1-0.4-0.2-0.5c-0.3-0.3-0.8-0.3-1,0L5.4,4.4L1.3,0.2
	C1.1,0.1,0.9,0,0.7,0c0,0,0,0,0,0C0.5,0,0.4,0.1,0.2,0.2C0.1,0.4,0,0.5,0,0.7c0,0.2,0.1,0.4,0.2,0.5l4.2,4.2L0.2,9.6
	C0.1,9.8,0,10,0,10.2s0.1,0.4,0.2,0.5l0,0c0.3,0.3,0.7,0.3,1,0l4.2-4.2L9.6,10.7z"/>
</svg>
